<svg width="60" height="63" viewBox="0 0 60 63" fill="none" xmlns="http://www.w3.org/2000/svg">
<path d="M56.7211 17.3785C56.8451 17.1903 57.0709 17.011 56.9425 16.7497C56.8141 16.4885 56.4997 16.5283 56.2517 16.5283H49.809C47.6858 16.5283 45.5626 16.5394 43.4372 16.5283C43.0675 16.4907 42.7132 16.6899 42.5516 17.0242C40.8291 20.0242 39.0912 23.0197 37.3377 26.0086C37.0786 26.4514 37.0986 26.6219 37.5591 26.9119C43.7582 30.8528 45.6977 39.0091 41.9383 45.3189C38.2897 51.5314 30.2662 53.8118 23.859 50.4421C23.4294 50.2207 23.2855 50.307 23.073 50.6812C21.4789 53.4642 19.8804 56.2427 18.2465 59.0014C17.941 59.5172 18.0118 59.7143 18.5343 59.991C23.8479 62.7939 29.4581 63.6618 35.3362 62.4972C52.2289 59.1519 61.1978 40.4393 52.1448 25.34C51.8747 24.8972 51.9234 24.6116 52.1891 24.2153C53.7079 21.9459 55.2134 19.6611 56.7211 17.3785Z" fill="#0FD856"/>
<path d="M21.2752 49.4923C21.8354 49.5631 22.3734 49.2598 22.6036 48.744C24.2486 45.8282 25.9224 42.9278 27.6249 40.0474C27.895 39.5869 27.8707 39.3833 27.4035 39.0799C23.6841 36.6268 21.5321 33.1553 21.2177 28.7185C20.8457 23.4758 22.8848 19.2205 27.2729 16.3202C31.661 13.4199 36.3657 13.2383 41.1147 15.5674C41.5133 15.7623 41.6837 15.7645 41.9184 15.346C43.5036 12.5609 45.0977 9.77788 46.7405 7.02368C47.077 6.46133 46.9619 6.27314 46.4371 6.00083C40.3686 2.86583 34.0433 2.14407 27.4921 4.03924C11.7618 8.59118 4.23422 26.4934 12.8909 40.7493C13.1101 41.0282 13.1012 41.4223 12.871 41.6924C11.3212 43.9795 9.80902 46.282 8.29023 48.5846C8.15518 48.7882 7.89614 48.9853 8.04448 49.2731C8.19282 49.5609 8.48728 49.4724 8.74631 49.4724H15.1159C17.1639 49.4768 19.2229 49.448 21.2752 49.4923Z" fill="#0FD856"/>
</svg>
