<svg width="20" height="20" viewBox="0 0 20 20" fill="none" xmlns="http://www.w3.org/2000/svg">
<path fill-rule="evenodd" clip-rule="evenodd" d="M6.28881 2.73161C6.42729 2.83158 6.65063 3.06121 6.65063 3.06121C7.51765 3.87382 8.82354 5.89495 9.2429 6.92036C9.25168 6.92036 9.50038 7.53007 9.51013 7.82007V7.85868C9.51013 8.30309 9.26143 8.7188 8.86157 8.9316C8.69673 9.01933 8.2958 9.10093 8.10236 9.14029C8.03829 9.15333 7.99698 9.16173 7.99456 9.1642C7.42305 9.2513 6.54628 9.30871 5.58368 9.30871C4.5733 9.30871 3.6585 9.2513 3.09577 9.1444C3.08601 9.1444 2.57204 9.0385 2.4004 8.9702C2.15268 8.86429 1.94299 8.6703 1.80938 8.42879C1.71381 8.23578 1.66699 8.03189 1.66699 7.82007C1.67577 7.59737 1.81913 7.18167 1.88545 7.01736C2.30482 5.93355 3.67703 3.86392 4.51576 3.0711C4.60289 2.98268 4.70204 2.89005 4.77103 2.82559C4.80785 2.7912 4.83607 2.76483 4.8493 2.7514C5.05899 2.5871 5.31646 2.5 5.59344 2.5C5.84018 2.5 6.0879 2.5772 6.28881 2.73161ZM15.1908 8.46815C15.1908 8.90465 14.8427 9.25801 14.4126 9.25801C13.9825 9.25801 13.6343 8.90465 13.6343 8.46815L13.4198 4.65246C13.4198 4.09619 13.8645 3.64583 14.4126 3.64583C14.9607 3.64583 15.4044 4.09619 15.4044 4.65246L15.1908 8.46815ZM17.6003 11.0297C17.848 11.1366 18.0577 11.3296 18.1913 11.5711C18.2868 11.7641 18.3337 11.968 18.3337 12.1808C18.3249 12.4025 18.1815 12.8192 18.1142 12.9835C17.6958 14.0664 16.3226 16.1361 15.4849 16.9299C15.3992 17.0162 15.3019 17.107 15.2331 17.1712C15.1946 17.2071 15.165 17.2347 15.1513 17.2486C14.9407 17.4129 14.6842 17.5 14.4082 17.5C14.1595 17.5 13.9118 17.4228 13.7118 17.2674C13.5734 17.1684 13.35 16.9388 13.35 16.9388C12.482 16.1271 11.1771 14.105 10.7577 13.0795C10.748 13.0795 10.5003 12.4708 10.4905 12.1808V12.1422C10.4905 11.6968 10.7382 11.2811 11.1391 11.0683C11.3036 10.9814 11.7033 10.8996 11.8971 10.8599L11.8971 10.8599C11.9619 10.8467 12.0037 10.8381 12.0061 10.8357C12.5776 10.7486 13.4544 10.6911 14.417 10.6911C15.4273 10.6911 16.3422 10.7486 16.9049 10.8555C16.9137 10.8555 17.4286 10.9614 17.6003 11.0297ZM5.58827 10.7421C5.15817 10.7421 4.81 11.0955 4.81 11.532L4.59544 15.3476C4.59544 15.9038 5.04017 16.3542 5.58827 16.3542C6.13637 16.3542 6.58012 15.9038 6.58012 15.3476L6.36654 11.532C6.36654 11.0955 6.01836 10.7421 5.58827 10.7421Z" fill="url(#paint0_linear_1646_38327)"/>
<defs>
<linearGradient id="paint0_linear_1646_38327" x1="18.3337" y1="17.5" x2="-1.14388" y2="11.2252" gradientUnits="userSpaceOnUse">
<stop stop-color="#06B343"/>
<stop offset="1" stop-color="#47F082"/>
</linearGradient>
</defs>
</svg>
